# AST/ASF file generated using VICON BodyLanguage
# -----------------------------------------------
:version 1.10
:name VICON
:units
  mass 1.0
  length 0.45
  angle deg
:documentation
   .ast/.asf automatically generated from VICON data using
   VICON BodyBuilder and BodyLanguage model FoxedUp or BRILLIANT.MOD
:root
   order TX TY TZ RX RY RZ
   axis XYZ
   position 0 0 0  
   orientation 0 0 0 
:bonedata
  begin
     id 1 
     name lhipjoint
     direction 0.521452 -0.77106 0.36545 
     length 2.0933 
     axis 0 0 0  XYZ
  end
  begin
     id 2 
     name lfemur
     direction 0.34202 -0.939693 0  
     length 6.83441  
     axis 0 0 20  XYZ
    dof rx ry rz
    limits (-160.0 20.0)
           (-70.0 70.0)
           (-60.0 70.0)
  end
  begin
     id 3 
     name ltibia
     direction 0.34202 -0.939693 0   
     length 7.28749   
     axis 0 0 20   XYZ
    dof rx
    limits (-10.0 170.0)
  end
  begin
     id 4 
     name lfoot
     direction 0.100608 -0.276418 0.955757   
     length 1.52195   
     axis -90 7.62852e-016 20   XYZ
    dof rx rz
    limits (-45.0 90.0)
           (-70.0 20.0)
  end
  begin
     id 5 
     name ltoes
     direction 1.53558e-011 -4.21907e-011 1   
     length 0.770459   
     axis -90 7.62852e-016 20   XYZ
    dof rx
    limits (-90.0 20.0)
  end
  begin
     id 6 
     name rhipjoint
     direction -0.488071 -0.788702 0.373812   
     length 2.04648  
     axis 0 0 0  XYZ 
  end
  begin
     id 7 
     name rfemur
     direction -0.34202 -0.939693 0   
     length 6.92583   
     axis 0 0 -20   XYZ
    dof rx ry rz
    limits (-160.0 20.0)
           (-70.0 70.0)
           (-70.0 60.0)
  end
  begin
     id 8 
     name rtibia
     direction -0.34202 -0.939693 0   
     length 7.41043   
     axis 0 0 -20   XYZ
    dof rx
    limits (-10.0 170.0)
 end
 begin
     id 9 
     name rfoot
     direction -0.0784433 -0.215521 0.973343   
     length 1.67708  
     axis -90 -7.62852e-016 -20   XYZ
    dof rx rz
    limits (-45.0 90.0)
           (-20.0 70.0)
  end
  begin
     id 10 
     name rtoes
     direction -1.53551e-011 -4.21842e-011 1   
     length 0.849787   
     axis -90 -7.62852e-016 -20   XYZ
    dof rx
    limits (-90.0 20.0)
  end
  begin
     id 11 
     name lowerback
     direction -0.0122332 0.997575 -0.0685192   
     length 1.98724   
     axis 0 0 0   XYZ
    dof rx ry rz
    limits (-20.0 45.0)
           (-30.0 30.0)
           (-30.0 30.0)
  end
  begin
     id 12 
     name upperback
     direction 0.0182347 0.999724 -0.0148421   
     length 1.99029   
     axis 0 0 0   XYZ
    dof rx ry rz
    limits (-20.0 45.0)
           (-30.0 30.0)
           (-30.0 30.0)
  end
  begin
     id 13 
     name thorax
     direction 0.0242908 0.99956 0.0170184   
     length 1.99573   
     axis 0 0 0   XYZ
    dof rx ry rz
    limits (-20.0 45.0)
           (-30.0 30.0)
           (-30.0 30.0)
  end
  begin
     id 14 
     name lowerneck
     direction 0.0654488 0.985533 0.156338   
     length 1.4285   
     axis 0 0 0   XYZ
    dof rx ry rz
    limits (-20.0 45.0)
           (-30.0 30.0)
           (-30.0 30.0)
  end
  begin
     id 15 
     name upperneck
     direction -0.02953 0.998556 -0.0448842   
     length 1.44709   
     axis 0 0 0   XYZ
    dof rx ry rz
    limits (-20.0 45.0)
           (-30.0 30.0)
           (-30.0 30.0)
  end
  begin
     id 16
     name head
     direction -0.0155588 0.999386 -0.0314063  
     length 1.44689  
     axis 0 0 0   XYZ
    dof rx ry rz
    limits (-20.0 45.0)
           (-30.0 30.0)
           (-30.0 30.0)
  end
  begin
     id 17 
     name lclavicle
     direction 0.968229 0.236071 -0.0824755  
     length 3.60593  
     axis 0 0 0   XYZ
    dof ry rz
    limits (-20.0 10.0)
           (0.0 20.0)
  end
  begin
     id 18 
     name lhumerus
     direction 1 -4.48968e-011 7.8138e-029   
     length 5.06035   
     axis 180 -30 -90   XYZ
    dof rx ry rz
    limits (-60.0 90.0)
           (-90.0 90.0)
           (-90.0 90.0)
  end
  begin
     id 19
     name lradius
     direction 1 -4.48967e-011 9.02887e-028   
     length 3.1478   
     axis 180 -30 -90   XYZ
    dof rx
    limits (-10.0 170.0)
  end
  begin
     id 20
     name lwrist
     direction 1 -4.48961e-011 7.20928e-028   
     length 1.5739   
     axis -5.52449e-016 90 90   XYZ
    dof ry
    limits (-180.0 0.0)
 end
  begin
     id 21 
     name lhand
     direction 1 -4.48972e-011 1.44186e-027   
     length 0.606747   
     axis -9.20027e-016 90 90   XYZ
    dof rx rz
    limits (-90.0 90.0)
           (-45.0 45.0)
  end
  begin
     id 22 
     name lfingers
     direction 1 -4.48943e-011 2.88371e-027   
     length 0.489175   
     axis -1.84005e-015 90 90   XYZ
    dof rx
    limits (0.0 90.0)
  end
  begin
     id 23
     name lthumb
     direction 0.707107 -6.34917e-011 0.707107   
     length 0.70236   
     axis -90 45 2.85299e-015   XYZ
    dof rx rz
    limits (-45.0 45.0)
           (-45.0 45.0)
  end
  begin
     id 24 
     name rclavicle
     direction -0.978165 0.207816 0.0022268   
     length 3.35425  
     axis 0 0 0   XYZ 
    dof ry rz
    limits (-10.0 20.0)
           (-20.0 0.0)
  end
  begin
     id 25 
     name rhumerus
     direction -1 -4.48964e-011 -4.02159e-027  
     length 5.12273   
     axis 180 30 90   XYZ
    dof rx ry rz
    limits (-90.0 60.0)
           (-90.0 90.0)
           (-90.0 90.0)
  end
  begin
     id 26 
     name rradius
     direction -1 -4.48966e-011 1.62746e-027   
     length 3.422   
     axis 180 30 90   XYZ
    dof rx
    limits (-10.0 170.0)
  end
  begin
     id 27 
     name rwrist
     direction -1 -4.4896e-011 7.20928e-028   
     length 1.711   
     axis -5.52449e-016 -90 -90   XYZ
    dof ry
    limits (-180.0 0.0)
  end
  begin
     id 28
     name rhand
     direction -1 -4.48979e-011 1.44186e-027   
     length 0.704599   
     axis -9.20027e-016 -90 -90   XYZ
    dof rx rz
    limits (-90.0 90.0)
           (-45.0 45.0)
  end
  begin
     id 29
     name rfingers
     direction -1 -4.48962e-011 2.88371e-027   
     length 0.568066   
     axis -1.84005e-015 -90 -90   XYZ
    dof rx
    limits (0.0 90.0)
  end
  begin
     id 30
     name rthumb
     direction -0.707107 -6.34949e-011 0.707107   
     length 0.815633   
     axis -90 -45 -2.85299e-015   XYZ
    dof rx rz
    limits (-45.0 45.0)
           (-45.0 45.0)
  end
:hierarchy
  begin
    root lhipjoint rhipjoint lowerback
    lhipjoint lfemur
    lfemur ltibia
    ltibia lfoot
    lfoot ltoes
    rhipjoint rfemur
    rfemur rtibia
    rtibia rfoot
    rfoot rtoes
    lowerback upperback
    upperback thorax
    thorax lowerneck lclavicle rclavicle
    lowerneck upperneck
    upperneck head
    lclavicle lhumerus
    lhumerus lradius
    lradius lwrist
    lwrist lhand lthumb
    lhand lfingers
    rclavicle rhumerus
    rhumerus rradius
    rradius rwrist
    rwrist rhand rthumb
    rhand rfingers
  end

#!OML:ASF E:\id_vita\Project 1\Capture day 1\Session 1\Male1.ASF
:FULLY-SPECIFIED
:DEGREES
113
root -4.57028 15.7215 -1.68017 367.53 82.8033 364.161
lowerback -7.8142 1.72 -1.7699
upperback -1.42399 2.50911 -1.16242
thorax 2.88181 1.25215 0.0486426
lowerneck -7.73487 0.930955 5.49988
upperneck 6.87961 0.633018 0.256738
head 3.64308 0.486477 -0.853442
rclavicle 1.65985e-014 -2.14687e-014
rhumerus -12.7597 -3.06727 -92.112
rradius 27.9415
rwrist -0.720735
rhand -20.372 39.2507
rfingers 7.12502
rthumb 5.98071 9.35512
lclavicle 1.65985e-014 -2.14687e-014
lhumerus -129.525 17.2602 -75.3155
lradius 11.3424
lwrist -112.892
lhand -11.9536 40.1566
lfingers 7.12502
lthumb 14.1017 69.6581
rfemur 13.6725 5.62436 19.4654
rtibia 36.9301
rfoot 15.3664 16.3601
rtoes 11.0583
lfemur -33.9848 3.51765 -21.9816
ltibia 39.1681
lfoot -13.9331 -2.65308
ltoes -4.99043
114
root -4.35319 15.7527 -1.69089 371.12 82.7045 368.023
lowerback -7.47296 1.60105 -2.16113
upperback -1.42404 2.3784 -1.3163
thorax 2.68409 1.18676 0.0847306
lowerneck -7.91091 1.0802 5.61661
upperneck 7.03435 0.813759 0.151675
head 3.74042 0.577969 -0.899685
rclavicle 5.7896e-015 -4.77083e-015
rhumerus -13.4403 -2.9676 -92.2735
rradius 27.516
rwrist -0.784667
rhand -20.3918 39.0894
rfingers 7.12502
rthumb 5.9616 9.19331
lclavicle 5.7896e-015 -4.77083e-015
lhumerus -129.22 19.1938 -72.7574
lradius 10.9637
lwrist -109.908
lhand -11.7714 40.1754
lfingers 7.12502
lthumb 14.2773 69.6646
rfemur 12.0338 5.79462 18.8336
rtibia 40.2611
rfoot 18.6517 15.96
rtoes 10.7911
lfemur -32.6983 3.54387 -22.5921
ltibia 39.0551
lfoot -14.6838 -2.24725
ltoes -5.25073
115
root -4.13575 15.7885 -1.70113 375.518 82.3055 372.645
lowerback -7.25363 1.55926 -2.74972
upperback -1.36308 2.36863 -1.48503
thorax 2.6085 1.17881 0.233002
lowerneck -8.04616 1.15804 5.73052
upperneck 6.91348 0.911581 -0.0389076
head 3.73109 0.617637 -0.978096
rclavicle -9.19379e-015 1.19271e-014
rhumerus -14.0496 -2.99396 -92.3442
rradius 27.0934
rwrist -0.585571
rhand -20.4268 38.6852
rfingers 7.12502
rthumb 5.92774 8.78815
lclavicle -9.19379e-015 1.19271e-014
lhumerus -129.316 20.7952 -70.9402
lradius 10.6649
lwrist -107.885
lhand -11.6908 40.3875
lfingers 7.12502
lthumb 14.3549 69.8712
rfemur 10.285 6.06544 17.9492
rtibia 43.392
rfoot 22.1216 15.38
rtoes 8.80392
lfemur -31.3213 3.82865 -23.4079
ltibia 38.7381
lfoot -15.444 -1.81611
ltoes -5.37739
116
root -3.91893 15.8269 -1.70936 380.113 82.0364 377.442
lowerback -7.1219 1.42352 -3.48708
upperback -1.27811 2.24585 -1.59719
thorax 2.60195 1.11224 0.515565
lowerneck -7.997 1.27048 5.81014
upperneck 6.66317 1.07424 -0.238861
head 3.64208 0.685089 -1.04927
rclavicle -1.27471e-014 1.47101e-014
rhumerus -14.5425 -2.81211 -92.3413
rradius 26.4775
rwrist -0.223396
rhand -20.5961 38.5958
rfingers 7.12502
rthumb 5.76434 8.69418
lclavicle -1.27471e-014 1.47101e-014
lhumerus -129.205 22.7567 -68.5406
lradius 10.3382
lwrist -105.406
lhand -11.9815 40.9919
lfingers 7.12502
lthumb 14.0749 70.4953
rfemur 8.53293 6.09468 17.0394
rtibia 46.3451
rfoot 25.0959 14.9262
rtoes 2.44569
lfemur -29.9256 4.29059 -24.3434
ltibia 38.2557
lfoot -16.2162 -1.8118
ltoes -5.6652
117
root -3.70976 15.8632 -1.71637 385.383 81.915 382.933
lowerback -6.81668 1.23052 -4.22295
upperback -1.25479 2.03881 -1.81934
thorax 2.44533 1.00854 0.670951
lowerneck -7.97163 1.33737 6.09219
upperneck 6.53679 1.15255 -0.46485
head 3.60259 0.718497 -1.17069
rclavicle 4.14715e-014 -1.35174e-014
rhumerus -15.1526 -2.63908 -92.4647
rradius 25.956
rwrist -0.129032
rhand -20.3488 38.8147
rfingers 7.12502
rthumb 6.0031 8.9198
lclavicle 4.14715e-014 -1.35174e-014
lhumerus -129.054 24.7127 -66.511
lradius 10.041
lwrist -103.372
lhand -12.1359 41.336
lfingers 7.12502
lthumb 13.926 70.8497
rfemur 6.88494 5.8443 16.0612
rtibia 49.1039
rfoot 26.9766 13.9569
rtoes 6.10091
lfemur -28.532 4.6037 -25.3392
ltibia 37.6996
lfoot -16.8978 -1.93197
ltoes -6.07786
118
root -3.50642 15.8927 -1.7223 389.169 81.8633 386.917
lowerback -6.53081 1.02272 -4.73043
upperback -1.16799 1.78979 -1.94892
thorax 2.37455 0.882417 0.793775
lowerneck -8.33281 1.41726 6.13312
upperneck 6.68705 1.23064 -0.515304
head 3.73108 0.758884 -1.19125
rclavicle -1.40267e-014 1.98785e-014
rhumerus -15.7495 -2.37903 -92.5673
rradius 25.6485
rwrist -0.322697
rhand -20.0115 38.8854
rfingers 7.12502
rthumb 6.32875 8.99997
lclavicle -1.40267e-014 1.98785e-014
lhumerus -128.132 28.4423 -62.4396
lradius 9.91891
lwrist -98.9411
lhand -11.8299 41.3894
lfingers 7.12502
lthumb 14.2209 70.8826
rfemur 5.35337 5.51613 15.358
rtibia 51.6284
rfoot 26.8495 13.0796
rtoes 5.47306
lfemur -27.1795 4.73903 -26.0216
ltibia 37.1272
lfoot -17.4613 -1.89545
ltoes -6.30182
119
root -3.30364 15.92 -1.72692 391.1 81.9547 388.997
lowerback -6.31414 0.775557 -4.99562
upperback -1.08271 1.46552 -1.9005
thorax 2.34905 0.717653 0.961957
lowerneck -8.5665 1.56397 5.93378
upperneck 6.72578 1.42616 -0.43286
head 3.79402 0.854214 -1.11597
rclavicle 1.15171e-014 -1.74931e-014
rhumerus -16.4048 -2.04503 -92.5592
rradius 25.3209
rwrist -0.266078
rhand -19.7387 38.8942
rfingers 7.12502
rthumb 6.59211 9.01677
lclavicle 1.15171e-014 -1.74931e-014
lhumerus -126.864 31.8559 -58.0744
lradius 9.66757
lwrist -94.6982
lhand -11.8429 41.4383
lfingers 7.12502
lthumb 14.2084 70.9324
rfemur 3.86423 5.1226 14.9986
rtibia 53.8849
rfoot 25.1659 12.2904
rtoes 3.74993
lfemur -25.8781 4.86337 -26.3351
ltibia 36.5539
lfoot -17.978 -1.90354
ltoes -6.05172
120
root -3.10421 15.952 -1.73078 392.823 82.0918 390.821
lowerback -5.85543 0.389468 -5.4944
upperback -1.84694 0.917491 -1.59096
thorax 1.3182 0.481383 1.50503
lowerneck -5.74168 1.64119 5.79181
upperneck 6.08739 1.76607 -0.701386
head 3.0364 0.997889 -1.16435
rclavicle 4.96962e-015 7.95139e-016
rhumerus -18.8183 -1.16985 -92.3743
rradius 24.9844
rwrist 0.0511058
rhand -19.8139 38.874
rfingers 7.12502
rthumb 6.51945 8.99431
lclavicle 4.96962e-015 7.95139e-016
lhumerus -123.812 33.5916 -52.4458
lradius 9.3041
lwrist -90.5037
lhand -12.2505 41.4697
lfingers 7.12502
lthumb 13.8156 70.9909
rfemur 2.18525 4.57613 14.6317
rtibia 55.8687
rfoot 22.9722 11.7131
rtoes 4.81778
lfemur -24.6531 4.91715 -26.571
ltibia 36.0022
lfoot -18.3828 -1.7958
ltoes -6.93403
121
root -2.90521 15.9858 -1.73726 394.202 82.1413 392.201
lowerback -5.40948 0.0751493 -5.98878
upperback -2.05508 0.475635 -1.2016
thorax 0.87455 0.276935 2.14887
lowerneck -5.92195 1.80323 5.41354
upperneck 6.44095 2.01891 -0.95593
head 3.19896 1.10957 -1.16967
rclavicle 7.57867e-016 2.96189e-014
rhumerus -19.8809 0.00311019 -92.066
rradius 24.5165
rwrist 0.329751
rhand -20.396 38.7072
rfingers 7.12502
rthumb 5.95748 8.81091
lclavicle 7.57867e-016 2.96189e-014
lhumerus -122.031 36.3251 -47.4038
lradius 9.13433
lwrist -86.4082
lhand -12.3506 41.3587
lfingers 7.12502
lthumb 13.7191 70.8865
rfemur 0.261048 4.02125 14.2171
rtibia 57.6107
rfoot 20.859 12.5839
rtoes 5.2982
lfemur -23.5325 4.81365 -26.7888
ltibia 35.4721
lfoot -18.6939 -1.41985
ltoes -8.4618
